<?xml version="1.0" encoding="utf-8"?>
<!-- Generator: Adobe Illustrator 16.0.0, SVG Export Plug-In . SVG Version: 6.00 Build 0)  -->
<!DOCTYPE svg PUBLIC "-//W3C//DTD SVG 1.1//EN" "http://www.w3.org/Graphics/SVG/1.1/DTD/svg11.dtd">
<svg version="1.1" id="Layer_1" xmlns="http://www.w3.org/2000/svg" xmlns:xlink="http://www.w3.org/1999/xlink" x="0px" y="0px"
	 width="200px" height="200px" viewBox="0 0 200 200" enable-background="new 0 0 200 200" xml:space="preserve">
<g>
	<path fill="#1A1A1A" d="M192.812,105.265L200,96.938l-7.683-7.869l5.631-9.447l-8.934-6.417l3.907-10.283l-9.912-4.767
		l2.063-10.806l-10.591-2.975l0.153-10.998l-10.944-1.09l-1.757-10.858l-10.969,0.828l-3.617-10.391l-10.658,2.721l-5.364-9.602
		l-10.023,4.527l-6.953-8.523l-9.085,6.199L96.939,0l-7.871,7.685L79.62,2.051l-6.416,8.935L62.921,7.077l-4.768,9.912
		l-10.805-2.062l-2.974,10.59l-10.999-0.153l-1.09,10.943l-10.859,1.759l0.829,10.967L11.867,52.65l2.719,10.658l-9.602,5.366
		l4.527,10.024L0.987,85.65l6.201,9.085L0,103.061l7.685,7.871l-5.634,9.447l8.934,6.417l-3.907,10.282l9.914,4.768l-2.063,10.806
		l10.589,2.975l-0.153,10.998l10.944,1.09l1.759,10.858l10.969-0.826l3.615,10.388l10.658-2.72l5.366,9.604l10.023-4.529
		l6.951,8.525l9.086-6.201L103.06,200l7.871-7.683l9.448,5.632l6.419-8.935l10.28,3.908l4.768-9.912l10.805,2.062l2.976-10.59
		l10.997,0.153l1.09-10.943l10.859-1.757l-0.827-10.969l10.389-3.618l-2.719-10.657l9.602-5.364l-4.529-10.026l8.526-6.951
		L192.812,105.265z M28.646,136.103c-4.86-13.384-6.889-25.562-6.083-36.538l1.202-0.656c1.209,8.159,2.245,15.214,3.111,21.171
		c0.864,5.956,1.612,11.032,2.244,15.214L28.646,136.103z M29.748,141.653l-0.085-0.319l0.645-0.168l0.084,0.321L29.748,141.653z
		 M34.124,110.979c0.472-0.81,0.839-1.591,1.102-2.35l0.645-0.167c0.447,1.72,0.545,3.412,0.29,5.076
		c-0.404,2.854-0.52,4.602-0.351,5.243l-0.32,0.085C34.119,116.25,33.661,113.621,34.124,110.979 M36.229,120.39l-0.966,0.253
		l-0.082-0.321l0.965-0.253L36.229,120.39z M33.875,135.085l0.728,0.153c-0.162,0.273-0.21,0.517-0.156,0.728
		C34.176,135.811,33.989,135.519,33.875,135.085 M35.194,142.124c-0.259-1.418-0.586-3.334-0.983-5.752l0.642-0.168l0.336,1.287
		c0.336,1.284,0.748,2.438,1.243,3.451c0.501,1.932,0.273,3.253-0.688,3.96C35.634,144.474,35.447,143.549,35.194,142.124
		 M35.911,145.544l0.645-0.167c-0.159,0.273-0.182,0.621-0.07,1.048C36.214,146.271,36.025,145.976,35.911,145.544 M36.177,147.879
		l0.643-0.167l0.253,0.965l-0.643,0.168L36.177,147.879z M36.933,150.775l0.643-0.169l0.417,1.609
		c-0.214,0.054-0.404,0.222-0.558,0.487L36.933,150.775z M38.019,154.955l-0.416-1.608l0.321-0.083l0.167,0.645l0.643-0.17
		L38.019,154.955z M44.524,144.332l-0.168-0.645l0.645-0.167l0.168,0.642L44.524,144.332z M43.983,138.291
		c-0.745-4.614-0.963-7.647-0.654-9.104l0.966-0.251C45.691,134.298,45.585,137.418,43.983,138.291 M44.877,45.791
		c-0.568,1.324-1.355,3.102-2.362,5.337l-0.628-0.216l0.434-1.255c0.431-1.258,0.725-2.449,0.872-3.566
		c0.648-1.885,1.572-2.858,2.762-2.917C45.812,43.591,45.455,44.463,44.877,45.791 M47.641,114.213
		c-0.107-0.841-0.214-1.68-0.305-2.507c0.188,0.417,0.379,0.833,0.569,1.247C47.819,113.374,47.729,113.795,47.641,114.213
		 M52.135,139.258c-0.04-3.65,0.961-5.971,2.996-6.961C55.323,135.68,54.324,138.001,52.135,139.258 M82.73,174.868
		c-0.842,0.412-1.579,0.861-2.217,1.347l-0.63-0.216c0.578-1.681,1.432-3.145,2.564-4.393c1.917-2.154,2.978-3.545,3.193-4.173
		l0.314,0.108C85.647,170.478,84.576,172.92,82.73,174.868 M89.63,175.75c1.709-2.925,3.824-4.307,6.346-4.144
		C93.989,174.671,91.871,176.051,89.63,175.75 M122.062,98.013c0.084-0.909,0.588-2.378,1.514-4.4
		c0.284-0.137,0.635-0.133,1.051,0.011C123.765,96.138,122.908,97.601,122.062,98.013 M131.893,22.032
		c0.217-0.63,0.433-0.907,0.638-0.837l0.835,0.641C132.804,22.109,132.317,22.178,131.893,22.032 M145.088,126.931
		c0.07-0.45,0.146-0.901,0.214-1.354c0.305-0.302,0.611-0.603,0.918-0.901C145.842,125.437,145.467,126.192,145.088,126.931
		 M145.527,44.819c0.05,0.124,0.041,0.188-0.081,0.146C145.474,44.919,145.498,44.867,145.527,44.819
		c-0.209-0.512-1.882-2.422-5.072-5.785l-7.846-3.752c1.133-1.251,2.797-2.675,4.98-4.264l2.673-4.703l3.141,1.079l-0.325,0.944
		c-1.061,1.038-2.308,3.653-3.752,7.847c0.692,1.407,1.454,2.259,2.289,2.544c2.516,0.864,4.853-1.495,7.003-7.081
		c1.125,0.148,2.05,0.354,2.781,0.604c0.737,0.253,1.347,0.342,1.838,0.28c0.689,1.406-0.624,3.18-3.941,5.322
		c-0.992,1.531-1.738,2.857-2.244,3.974C146.578,42.888,146.068,43.883,145.527,44.819 M151.142,42.71l-1.384,1.982
		c-0.062-0.493,0.155-1.12,0.648-1.885C150.688,42.669,150.937,42.638,151.142,42.71 M149.157,63.816
		c0.216-0.628,0.434-0.905,0.639-0.835L149.157,63.816z M152.684,57.648l-0.63-0.216c1.506-3,2.396-4.57,2.673-4.705l0.305,1.158
		C154.038,55.417,153.258,56.668,152.684,57.648 M151.909,50.703c-0.496,0.765-1.385,2.335-2.673,4.705l-0.943-0.325
		c-0.252-2.666,0.993-4.929,3.744-6.798c1.987-2.361,3.12-3.615,3.396-3.75C156.127,45.944,154.948,47.997,151.909,50.703
		 M173.328,104.007c0.139,0.275,0.135,0.628-0.011,1.051l-0.63-0.218C172.974,104.701,173.185,104.424,173.328,104.007
		 M169.24,113.849c0.141,0.277,0.137,0.626-0.009,1.048l-0.521-0.528C168.993,114.229,169.17,114.054,169.24,113.849
		 M164.842,101.088l0.63,0.215l-0.216,0.63l-0.63-0.215L164.842,101.088z M160.298,41.639l0.628,0.216
		c0.623,0.918,1.193,1.991,1.703,3.222c0.516,1.23,0.978,2.621,1.38,4.166c-1.214,2.859-2.318,5.054-3.321,6.589l-0.942-0.323
		c0.228-1.328,0.03-2.801-0.589-4.419C158.58,52.763,158.959,49.613,160.298,41.639 M161.367,62.039
		c-0.278,0.137-0.458,0.311-0.53,0.521C160.981,62.139,161.159,61.969,161.367,62.039 M162.583,106.636
		c-1.933,4.259-3.429,6.906-4.49,7.948l-0.944-0.325C158.951,109.019,160.764,106.479,162.583,106.636 M160.087,126.164l-0.11,0.314
		l-0.942-0.325l0.107-0.312L160.087,126.164z M159.011,150.749l-1.363-0.118c3.506-7.467,6.543-13.917,9.117-19.359
		c2.573-5.441,4.757-10.082,6.541-13.917l0.847-0.413C170.798,130.78,165.753,142.051,159.011,150.749 M174.389,102.965
		l-0.628-0.216l0.323-0.942l0.628,0.216L174.389,102.965z M174.732,99.919l0.541-1.57c0.212,0.072,0.458,0.037,0.735-0.1
		l-0.648,1.886L174.732,99.919z M176.195,112.021l-0.63-0.216l0.108-0.315l0.63,0.216L176.195,112.021z M176.225,97.621
		l-0.313-0.107l0.218-0.628l-0.632-0.216l1.269-0.621L176.225,97.621z"/>
	<g>
		<path fill="#FFFFFF" d="M48.389,82.875c-0.28,0.979-0.534,1.931-0.758,2.838c-0.281,1.142-0.54,2.179-0.773,3.109
			c-0.231,0.912-0.394,1.646-0.484,2.182c-0.186,0.951-0.808,1.551-1.802,1.746c-0.854,0.169-1.773,0.099-2.721-0.209
			c-0.934-0.305-1.783-0.834-2.525-1.572c-0.779-0.776-1.175-1.752-1.175-2.9c0-0.935,0.234-2.412,0.716-4.517
			c0.468-2.053,1.146-4.487,2.014-7.236c0.86-2.729,1.904-5.735,3.102-8.935c1.03-2.75,2.183-5.518,3.436-8.245
			c0.41-0.895,1.258-1.51,2.234-1.623c2.212-0.257,4.131-0.194,5.757,0.19c0.979,0.23,1.505,1.296,1.095,2.214
			c-1.049,2.343-2.016,4.681-2.879,6.955c-0.699,1.843-1.37,3.666-2.002,5.439c-0.062,0.174,0.116,0.338,0.284,0.26
			c0.843-0.388,1.676-0.846,2.489-1.368c1.334-0.856,2.549-1.881,3.611-3.042c1.06-1.159,1.928-2.468,2.58-3.891
			c0.646-1.406,0.974-2.937,0.974-4.549c0-2.073-0.574-3.604-1.705-4.549c-1.146-0.957-2.759-1.441-4.796-1.441
			c-2.169,0-4.152,0.515-5.896,1.53c-1.787,1.04-3.333,2.32-4.596,3.807c-1.271,1.493-2.271,3.09-2.974,4.746
			c-0.696,1.643-1.05,3.081-1.05,4.278c0,0.858-0.453,1.479-1.275,1.745c-0.722,0.234-1.516,0.2-2.331-0.104
			c-0.785-0.293-1.512-0.869-2.161-1.713c-0.654-0.849-0.985-1.998-0.985-3.415c0-1.237,0.469-2.695,1.433-4.457
			c0.94-1.717,2.328-3.389,4.126-4.967c1.796-1.577,4.063-2.946,6.739-4.067c2.693-1.127,5.806-1.699,9.251-1.699
			c1.963,0,3.93,0.23,5.847,0.684c1.934,0.458,3.686,1.155,5.207,2.071c1.541,0.927,2.806,2.09,3.76,3.459
			c0.972,1.393,1.464,3.026,1.464,4.854c0,1.97-0.432,3.816-1.285,5.488c-0.846,1.657-2.009,3.17-3.457,4.498
			c-1.435,1.316-3.135,2.478-5.055,3.452c-1.582,0.803-3.266,1.487-5.013,2.039c-0.111,0.035-0.151,0.093-0.146,0.208
			c0.038,0.872,0.101,1.73,0.187,2.561c0.099,0.951,0.23,1.88,0.391,2.759c0.156,0.865,0.346,1.707,0.561,2.505
			c0.167,0.616,0.353,1.218,0.553,1.786c0.127,0.364,0.261,0.719,0.397,1.054c0.273,0.673,0.574,1.316,0.896,1.913
			c0.314,0.586,0.655,1.142,1.014,1.653c0.348,0.497,0.722,0.966,1.112,1.394c0.38,0.415,0.781,0.798,1.194,1.138
			c0.403,0.332,0.828,0.632,1.262,0.892c0.423,0.253,0.866,0.473,1.318,0.653c0.445,0.179,0.906,0.321,1.37,0.426
			s0.943,0.173,1.427,0.203s0.986,0.023,1.488-0.021c0.51-0.045,1.03-0.13,1.55-0.252c0.53-0.124,1.071-0.29,1.608-0.494
			c0.551-0.208,1.108-0.459,1.658-0.746c0.21-0.11,0.422-0.227,0.633-0.349c0.687-0.396,1.561-0.207,2.021,0.437
			c0.461,0.645,0.358,1.533-0.237,2.055c-0.293,0.256-0.586,0.505-0.878,0.745c-0.704,0.579-1.412,1.115-2.103,1.594
			c-0.658,0.457-1.325,0.879-1.983,1.255c-0.33,0.189-0.676,0.376-1.027,0.555c-0.677,0.344-1.361,0.646-2.036,0.9
			c-0.673,0.253-1.349,0.461-2.008,0.62c-0.658,0.16-1.32,0.274-1.969,0.342c-0.461,0.047-0.923,0.07-1.374,0.07
			c-0.183,0-0.364-0.003-0.547-0.011c-0.625-0.027-1.249-0.102-1.852-0.221c-0.3-0.059-0.6-0.13-0.895-0.213
			c-0.284-0.079-0.576-0.173-0.868-0.279c-0.562-0.205-1.118-0.457-1.65-0.75c-0.524-0.287-1.037-0.619-1.525-0.986
			c-0.394-0.298-0.78-0.624-1.147-0.971c-0.443-0.418-0.873-0.879-1.281-1.373c-0.401-0.485-0.787-1.012-1.146-1.562
			c-0.358-0.55-0.698-1.137-1.01-1.742c-0.313-0.605-0.607-1.248-0.877-1.912c-0.266-0.655-0.515-1.354-0.739-2.073
			c-0.221-0.708-0.424-1.458-0.603-2.229c-0.179-0.771-0.333-1.569-0.462-2.377c-0.113-0.712-0.211-1.452-0.287-2.204
			C48.774,82.683,48.452,82.654,48.389,82.875"/>
		<path fill="#FFFFFF" d="M166.032,54.062c0,3.234-2.622,5.856-5.855,5.856c-3.234,0-5.857-2.622-5.857-5.856
			s2.623-5.856,5.857-5.856C163.41,48.206,166.032,50.828,166.032,54.062"/>
		<path fill="#FFFFFF" d="M164.726,77.685c-0.285-0.443-0.835-0.729-1.4-0.729c-0.537,0-1.02,0.252-1.322,0.69
			c-0.348,0.503-0.775,1.1-1.273,1.773c-0.547,0.74-1.136,1.449-1.753,2.107c-0.612,0.656-1.209,1.226-1.774,1.694
			c-0.585,0.485-0.963,0.587-1.177,0.587c-0.149,0-0.429,0-0.492-0.737c-0.065-0.771,0.049-1.775,0.341-2.983
			c0.298-1.241,0.729-2.619,1.282-4.095c0.563-1.502,1.13-2.937,1.681-4.264c0.573-1.38,1.066-2.526,1.505-3.507
			c0.438-0.976,0.713-1.61,0.817-1.888c0.351-0.803,0.223-1.596-0.37-2.291c-0.544-0.638-1.272-1.085-2.163-1.329
			c-0.871-0.238-1.819-0.252-2.809-0.041c-1.059,0.227-1.898,0.839-2.495,1.819c-0.526,0.861-1.21,2.213-2.034,4.019
			c-0.826,1.811-1.624,3.82-2.373,5.974c-0.454,1.306-0.873,2.634-1.252,3.971c-0.631,2.223-1.929,4.198-3.718,5.661
			c-0.641,0.523-1.314,1.017-2.016,1.475c-0.31,0.203-0.622,0.392-0.935,0.563c-0.1,0.055-0.203-0.064-0.135-0.154
			c0.541-0.712,1.073-1.481,1.592-2.304c1.068-1.692,2.043-3.72,2.895-6.025c0.901-2.441,1.467-4.667,1.681-6.618
			c0.215-1.975,0.141-3.697-0.224-5.121c-0.377-1.471-1.035-2.627-1.959-3.438c-0.956-0.838-2.138-1.263-3.512-1.263
			c-1.619,0-3.108,0.429-4.425,1.274c-0.898,0.577-1.732,1.223-2.487,1.926c-0.062,0.059-0.114,0.052-0.16-0.021
			c-0.167-0.268-0.393-0.519-0.677-0.755c-0.639-0.527-1.407-0.881-2.285-1.05c-0.881-0.167-1.776-0.106-2.649,0.181
			c-0.934,0.307-1.63,0.939-2.069,1.884c-0.845,1.819-1.736,3.941-2.65,6.31c-0.912,2.364-1.802,4.835-2.645,7.346
			c-0.093,0.278-0.186,0.557-0.278,0.835c-0.712,2.141-2.049,4.02-3.838,5.394c-0.472,0.362-0.96,0.709-1.461,1.036
			c-0.311,0.203-0.622,0.392-0.936,0.564c-0.1,0.054-0.202-0.065-0.134-0.155c0.54-0.712,1.072-1.48,1.591-2.304
			c1.068-1.691,2.043-3.719,2.896-6.025c0.9-2.441,1.466-4.668,1.68-6.618c0.216-1.976,0.141-3.698-0.224-5.121
			c-0.376-1.47-1.035-2.626-1.959-3.438c-0.956-0.838-2.138-1.263-3.511-1.263c-1.621,0-3.109,0.429-4.426,1.273
			c-0.899,0.578-1.732,1.224-2.486,1.926c-0.062,0.059-0.114,0.052-0.16-0.021c-0.168-0.267-0.395-0.518-0.679-0.753
			c-0.638-0.528-1.406-0.881-2.285-1.051c-0.881-0.167-1.776-0.106-2.647,0.181c-0.933,0.306-1.63,0.939-2.071,1.885
			c-0.845,1.821-1.736,3.943-2.649,6.309c-0.856,2.222-1.689,4.527-2.48,6.861c-0.597,1.762-1.489,3.177-2.822,4.473
			c-0.344,0.335-0.68,0.638-1.004,0.906c-0.584,0.485-0.962,0.587-1.176,0.587c-0.15,0-0.43,0-0.492-0.738
			c-0.065-0.77,0.049-1.773,0.34-2.982c0.297-1.24,0.729-2.618,1.282-4.095c0.558-1.486,1.123-2.922,1.681-4.264
			c0.563-1.354,1.07-2.534,1.506-3.507c0.446-0.994,0.713-1.612,0.815-1.888c0.353-0.803,0.225-1.596-0.368-2.291
			c-0.546-0.639-1.287-1.086-2.204-1.33c-0.896-0.237-1.842-0.251-2.807-0.039c-1.034,0.228-1.861,0.839-2.457,1.816
			c-0.119,0.194-0.243,0.407-0.375,0.645c-0.047,0.085-0.173,0.065-0.193-0.029c-0.113-0.533-0.296-1.038-0.546-1.508
			c-0.375-0.698-0.931-1.272-1.65-1.705c-0.73-0.438-1.658-0.661-2.757-0.661c-2.59,0-5.217,1.195-7.808,3.554
			c-2.543,2.314-4.651,6.009-6.268,10.98c-0.758,2.397-1.202,4.614-1.322,6.588c-0.119,1.997,0.042,3.721,0.479,5.122
			c0.451,1.444,1.17,2.586,2.14,3.39c1,0.831,2.201,1.253,3.57,1.253c1.013,0,1.979-0.175,2.872-0.52
			c0.866-0.335,1.669-0.765,2.386-1.278c0.552-0.395,1.065-0.841,1.532-1.331c0.333-0.35,0.919-0.209,1.057,0.254
			c0.153,0.519,0.367,0.98,0.641,1.382c0.677,0.99,1.748,1.493,3.183,1.493c1.59,0,3.196-0.597,4.775-1.772
			c0.735-0.547,1.454-1.145,2.15-1.787c0.157-0.144,0.403,0.011,0.342,0.215c-0.406,1.352-0.771,2.605-1.101,3.78
			c-0.554,1.977-1.005,3.679-1.34,5.06c-0.449,1.853-0.507,2.356-0.507,2.589c0,1.136,0.353,2.104,1.05,2.878
			c0.672,0.744,1.451,1.279,2.318,1.588c0.57,0.203,1.128,0.306,1.654,0.306c0.291,0,0.579-0.032,0.855-0.094
			c0.621-0.142,1.41-0.556,1.64-1.73l0.004-0.022c0.091-0.619,0.265-1.457,0.518-2.492c0.263-1.073,0.581-2.296,0.947-3.633
			c0.361-1.33,0.774-2.812,1.263-4.529c0.226-0.794,0.468-1.626,0.725-2.49c0.053-0.176,0.29-0.203,0.382-0.045
			c0.114,0.198,0.241,0.391,0.382,0.578c0.791,1.061,2.053,1.6,3.752,1.603c0.341,0.016,0.683,0.023,1.018,0.023h0.001
			c2.497,0,4.843-0.429,6.971-1.274c2.033-0.807,3.896-1.792,5.556-2.934c0.163-0.111,0.376,0.044,0.318,0.233
			c-0.477,1.569-0.906,3.038-1.283,4.388c-0.558,1.99-1.009,3.691-1.342,5.059c-0.447,1.856-0.506,2.358-0.506,2.589
			c0,1.135,0.354,2.103,1.05,2.878c0.672,0.745,1.452,1.279,2.319,1.588c0.57,0.202,1.126,0.306,1.653,0.306
			c0.291,0,0.579-0.032,0.856-0.094c0.621-0.142,1.409-0.556,1.639-1.73l0.004-0.022c0.092-0.621,0.266-1.459,0.519-2.492
			c0.262-1.073,0.579-2.295,0.946-3.633c0.363-1.336,0.777-2.817,1.264-4.529c0.226-0.796,0.468-1.627,0.724-2.49
			c0.053-0.176,0.29-0.204,0.382-0.045c0.114,0.197,0.242,0.391,0.383,0.578c0.79,1.061,2.052,1.6,3.751,1.603
			c0.341,0.016,0.684,0.023,1.019,0.023l0,0c2.496,0,4.843-0.429,6.971-1.274c2.383-0.944,4.536-2.134,6.4-3.535
			c0.316-0.238,0.626-0.479,0.927-0.724c0.138-0.111,0.343-0.011,0.34,0.166c-0.001,0.08-0.002,0.159-0.002,0.237
			c0,1.491,0.313,2.706,0.933,3.613c0.676,0.99,1.747,1.493,3.183,1.493c1.587,0,3.204-0.596,4.806-1.77
			c1.522-1.115,2.961-2.434,4.273-3.919c1.296-1.465,2.434-2.924,3.384-4.338c0.961-1.431,1.607-2.409,1.977-2.991
			C164.996,78.636,165.005,78.119,164.726,77.685 M83.688,70.059c-0.113,1.045-0.335,2.239-0.656,3.55
			c-0.322,1.307-0.766,2.683-1.315,4.092c-0.549,1.401-1.133,2.72-1.737,3.919c-0.593,1.17-1.192,2.169-1.782,2.968
			c-0.575,0.777-1.114,1.356-1.605,1.723c-0.363,0.271-0.564,0.3-0.634,0.3c-0.031,0-0.059-0.005-0.088-0.019
			c-0.066-0.03-0.294-0.183-0.412-0.897c-0.11-0.653-0.121-1.497-0.031-2.507c0.092-1.028,0.3-2.208,0.621-3.509
			c0.319-1.302,0.763-2.678,1.315-4.091c0.556-1.42,1.141-2.738,1.738-3.92c0.59-1.17,1.19-2.181,1.784-3.004
			c0.572-0.795,1.111-1.383,1.602-1.749c0.363-0.271,0.565-0.3,0.635-0.3c0.033,0,0.06,0.006,0.085,0.017
			c0.069,0.032,0.308,0.19,0.453,0.914C83.79,68.188,83.8,69.034,83.688,70.059 M112.06,70.121c-0.184,1.03-0.475,2.217-0.865,3.527
			c-0.395,1.315-0.897,2.695-1.487,4.089c-0.646,1.415-1.313,2.735-1.983,3.924c-0.665,1.179-1.325,2.191-1.962,3.011
			c-0.619,0.8-1.193,1.391-1.709,1.758c-0.387,0.277-0.601,0.307-0.674,0.307c-0.035,0-0.063-0.006-0.093-0.019
			c-0.063-0.029-0.279-0.177-0.375-0.882c-0.087-0.641-0.04-1.486,0.139-2.514c0.183-1.054,0.475-2.25,0.866-3.558
			c0.388-1.303,0.89-2.683,1.492-4.102c0.598-1.41,1.249-2.725,1.938-3.904c0.691-1.184,1.362-2.187,1.995-2.98
			c0.619-0.778,1.195-1.36,1.713-1.73c0.388-0.277,0.603-0.307,0.677-0.307c0.034,0,0.062,0.006,0.089,0.018
			c0.064,0.028,0.281,0.178,0.376,0.882C112.283,68.283,112.237,69.118,112.06,70.121 M138.281,70.121
			c-0.184,1.029-0.475,2.217-0.865,3.527c-0.393,1.309-0.895,2.688-1.487,4.089c-0.646,1.413-1.313,2.733-1.984,3.924
			c-0.663,1.178-1.323,2.19-1.96,3.011c-0.621,0.8-1.195,1.391-1.709,1.758c-0.387,0.277-0.602,0.307-0.676,0.307
			c-0.034,0-0.062-0.006-0.092-0.019c-0.063-0.029-0.28-0.178-0.374-0.881c-0.088-0.645-0.041-1.49,0.139-2.515
			c0.183-1.058,0.474-2.254,0.865-3.558c0.388-1.302,0.89-2.682,1.491-4.102c0.597-1.407,1.249-2.721,1.939-3.904
			c0.689-1.183,1.36-2.185,1.995-2.98c0.617-0.776,1.193-1.358,1.713-1.73c0.389-0.277,0.603-0.307,0.677-0.307
			c0.034,0,0.062,0.006,0.089,0.018c0.064,0.028,0.28,0.178,0.376,0.882C138.505,68.285,138.459,69.119,138.281,70.121"/>
		<path fill="#FFFFFF" d="M164.759,123.811c-7.005,6.133-13.219,6.518-20.681,1.024c-3.431-2.523-6.504-5.529-9.944-8.039
			c-2.662-1.941-5.476-3.869-8.513-5.068c-5.256-2.08-10.589-1.373-15.389,1.543c-3.261,1.982-6.231,4.451-9.255,6.805
			c-0.426,0.326-0.743,0.505-1.065,0.492c-0.322,0.013-0.64-0.166-1.064-0.492c-3.024-2.354-5.994-4.822-9.256-6.805
			c-4.795-2.916-10.132-3.623-15.388-1.543c-3.038,1.199-5.852,3.127-8.514,5.068c-3.439,2.51-6.513,5.516-9.944,8.039
			c-7.462,5.493-13.675,5.108-20.681-1.024c-0.577-0.506-1.154-1.012-1.731-1.513c1.043,5.771,3.293,10.947,6.612,15.644
			c4.236,5.995,9.792,10.289,16.767,12.646c16.301,5.512,36.892-2.17,43.199-16.668c6.308,14.498,26.899,22.18,43.2,16.668
			c6.974-2.357,12.529-6.651,16.767-12.646c3.319-4.696,5.569-9.873,6.611-15.644C165.913,122.799,165.336,123.305,164.759,123.811"
			/>
	</g>
</g>
</svg>
