<?xml version="1.0" encoding="utf-8"?>
<!-- Generator: Adobe Illustrator 16.0.0, SVG Export Plug-In . SVG Version: 6.00 Build 0)  -->
<!DOCTYPE svg PUBLIC "-//W3C//DTD SVG 1.1//EN" "http://www.w3.org/Graphics/SVG/1.1/DTD/svg11.dtd">
<svg version="1.1" id="Layer_1" xmlns="http://www.w3.org/2000/svg" xmlns:xlink="http://www.w3.org/1999/xlink" x="0px" y="0px"
	 width="1920px" height="50px" viewBox="0 0 1920 50" enable-background="new 0 0 1920 50" xml:space="preserve">
<path fill="#CF0A2C" d="M20.736,44.636c4.348-3.413,27.365-11.674,30.523-3.683C53.716,39.775,75,13.789,89,20.7
	c3.709-1.326,21.636-2.919,25.101-4.148c1.58,0.515,36.608-4.503,36.608-4.988c0-1.749,30.039,7.737,30.039,5.052
	c0-5.636,27.035,6.913,27.035,6.394c0-0.333,32.966-1.243,32.966-0.306c0,0.313,30.476,0.78,30.476,1.342
	c0-1.342,31.105,3.021,31.105,4.251c0,0.066,29.319-6.533,29.319-7.152c0,7.304,33.134,3.146,33.134,2.716
	c0-0.115,30.771-4.511,30.771-2.091c0-0.579,27.838-4.441,27.838-5.226c0-0.886,32.279-7.062,32.279-2.089
	c0,3.384,30.963-8.967,30.963-6.547c0,1.022,36.431,7.939,36.431,4.326c0-0.896,29.146-4.461,29.146-1.606
	c0,4.866,29.263-5.438,29.263-3.896c0,0.937,29.626,4.967,29.626,3.49c0,3.363,29.875-7.469,29.875-3.335
	c0,0.346,29.514,0.702,29.514,1.395c0,2.381,28.716,1.561,28.716,3.596c0,0.976,29.161-0.59,29.161,1.045
	c0-1.94,30.593-1.725,30.593-2.193c0,3.131,29.377,2.798,29.377,1.037c0-1.97,29.137,4.256,29.137,1.444
	c0,1.833,27.407,3.701,27.407,3.837c0,0.455,28.792,3.532,28.792,1.588c0,3.083,27.471,4.288,27.471,3.85
	c0,0.66,29.938-0.569,29.938,0.968c0-3.483,31.5,2.178,31.5-0.507c0,1.821,26.379,3.114,26.379,4.782
	c0-4.272,34.195-1.273,34.195-3.139c0,0.555,29.602-2.183,29.602,1.419c0-5.409,25.138,3.261,25.138,6.117
	c0,6.026,29.744,0.271,29.744,1.301c0,0.985,32.015-7.247,32.015-1.668c0,1.921,27.225,8.288,27.225,4.294
	c0,0.074,29.425,3.079,29.425,1.5c0-5.746,30.534,3.699,30.534-0.931c0-0.203,27.572,5.178,27.572,7.751
	c0,5.551,31.271-1.741,31.271-5.062c0,1.06,30.367,2.342,30.367,5.25c0-2.035,30.06-2,30.06-2.969c0-3.376,30.407,1.148,30.407-0.56
	c0-3.828,29.138-3.808,29.138-4.05c0,2.647,31.258-1.78,31.258-2.998c0,0.933,32.062,1.479,32.062,2.974
	c0,0.274,33.957-0.832,33.957,3.69c0,5.787,33.785,3.367,33.785,2.479c0-4.225,22.681,2.507,22.681,3.439
	c0,3.271,25.78,4.983,25.78,1.564c0-9.428,24.347-3.443,24.347-4.24c0-2.584,31.465,3.491,31.465,3.989
	c0,4.505,27.567-4.003,27.567-7.323c0-1.275,32.013,3.211,32.013,5.579c0-4.288,33.088,0.394,28.95-3.312
	c1.347,1.461,31.975,2.434,30.311,0.271c2.424,0.849,25.083-2.601,29.332-0.446c-6.662-6.83,22.968-2.562,30.951,1.109
	c0.759-1.376,27.386-2.632,29.205-2.574c-5.516-1.262,34.183-2.804,29.084-2.867c2.04-0.4,30.129-2.696,29.886-2.459
	c0.468,3.053,5.765,4.758,11.722,5.519V0H0v41.264C5.031,40.846,15.21,41.43,20.736,44.636z"/>
</svg>
