<?xml version="1.0" encoding="utf-8"?>
<!-- Generator: Adobe Illustrator 16.0.0, SVG Export Plug-In . SVG Version: 6.00 Build 0)  -->
<!DOCTYPE svg PUBLIC "-//W3C//DTD SVG 1.1//EN" "http://www.w3.org/Graphics/SVG/1.1/DTD/svg11.dtd">
<svg version="1.1" id="Layer_1" xmlns="http://www.w3.org/2000/svg" xmlns:xlink="http://www.w3.org/1999/xlink" x="0px" y="0px"
	 width="50px" height="1920px" viewBox="935 0 50 1920" enable-background="new 935 0 50 1920" xml:space="preserve">
<path fill="#CF0A2C" d="M943.737,1920H985L985.001,0h-41.374c0.762,5.957,2.467,11.253,5.516,11.718
	c0.238-0.244-2.057,27.845-2.458,29.885c-0.065-5.1-1.606,34.598-2.868,29.084c0.059,1.82-1.197,28.447-2.572,29.201
	c3.67,7.983,7.939,37.613,1.108,30.951c2.155,4.25-1.294,26.908-0.447,29.332c-2.161-1.664-1.188,28.965,0.271,30.312
	c-3.704-4.138,0.978,28.95-3.311,28.95c2.368,0,6.854,32.011,5.579,32.011c-3.321,0-11.827,27.569-7.325,27.569
	c0.5,0,6.575,31.465,3.99,31.465c-0.797,0,5.188,24.346-4.24,24.346c-3.418,0-1.705,25.781,1.565,25.781
	c0.933,0,7.663,22.68,3.44,22.68c-0.89,0-3.31,33.787,2.478,33.787c4.522,0,3.416,33.957,3.69,33.957
	c1.496,0,2.041,32.061,2.975,32.061c-1.219,0-5.646,31.26-2.998,31.26c-0.242,0-0.221,29.137-4.049,29.137
	c-1.708,0,2.816,30.408-0.561,30.408c-0.969,0-0.934,30.058-2.968,30.058c2.908,0,4.19,30.368,5.249,30.368
	c-3.32,0-10.613,31.271-5.062,31.271c2.574,0,7.955,27.571,7.752,27.571c-4.631,0,4.814,30.535-0.932,30.535
	c-1.58,0,1.424,29.425,1.5,29.425c-3.994,0,2.373,27.227,4.293,27.227c5.579,0-2.652,32.013-1.668,32.013
	c1.031,0-4.727,29.745,1.301,29.745c2.856,0,11.526,25.137,6.117,25.137c3.603,0,0.864,29.604,1.418,29.604
	c-1.864,0,1.133,34.193-3.138,34.193c1.668,0,2.96,26.378,4.781,26.378c-2.687,0,2.974,31.5-0.509,31.5
	c1.537,0,0.309,29.938,0.969,29.938c-0.438,0,0.768,27.472,3.852,27.472c-1.943,0,1.133,28.792,1.588,28.792
	c0.137,0,2.004,27.407,3.838,27.407c-2.814,0,3.414,29.137,1.441,29.137c-1.762,0-2.094,29.377,1.037,29.377
	c-0.465,0-0.254,30.594-2.191,30.594c1.635,0,0.068,29.161,1.045,29.161c2.035,0,1.215,28.716,3.598,28.716
	c0.695,0,1.049,29.515,1.396,29.515c4.133,0-6.7,29.876-3.338,29.876c-1.479,0,2.553,29.626,3.49,29.626
	c1.541,0-8.763,29.264-3.896,29.264c2.855,0-0.708,29.146-1.604,29.146c-3.615,0,3.303,36.431,4.323,36.431
	c2.421,0-9.932,30.963-6.547,30.963c4.972,0-1.203,32.278-2.09,32.278c-0.786,0-4.649,27.839-5.228,27.839
	c2.42,0-1.978,30.771-2.092,30.771c-0.428,0-4.586,33.136,2.717,33.136c-0.619,0-7.216,29.317-7.15,29.317
	c1.23,0,5.592,31.104,4.251,31.104c0.563,0,1.028,30.476,1.341,30.476c0.936,0,0.028,32.966-0.307,32.966
	c-0.518,0,12.033,27.035,6.395,27.035c-2.683,0,6.803,30.038,5.053,30.038c-0.484,0-5.502,35.028-4.987,36.608
	c-1.229,3.465-2.822,21.392-4.148,25.101c6.912,14-19.074,35.284-20.251,37.743c7.99,3.157-0.271,26.173-3.684,30.521
	C943.571,1904.789,944.156,1914.969,943.737,1920z"/>
</svg>
