<?xml version="1.0" encoding="utf-8"?>
<!-- Generator: Adobe Illustrator 16.0.0, SVG Export Plug-In . SVG Version: 6.00 Build 0)  -->
<!DOCTYPE svg PUBLIC "-//W3C//DTD SVG 1.1//EN" "http://www.w3.org/Graphics/SVG/1.1/DTD/svg11.dtd">
<svg version="1.1" id="Layer_1" xmlns="http://www.w3.org/2000/svg" xmlns:xlink="http://www.w3.org/1999/xlink" x="0px" y="0px"
	 width="1920px" height="50px" viewBox="0 0 1920 50" enable-background="new 0 0 1920 50" xml:space="preserve">
<path fill="#FFFFFF" d="M20.736,44.636c4.348-3.413,27.365-11.674,30.523-3.683C53.716,39.775,75,13.789,89,20.7
	c3.709-1.326,21.636-2.919,25.101-4.148c1.58,0.515,36.608-4.503,36.608-4.988c0-1.749,30.039,7.737,30.039,5.052
	c0-5.636,27.035,6.913,27.035,6.394c0-0.333,32.966-1.243,32.966-0.306c0,0.313,30.476,0.78,30.476,1.342
	c0-1.342,31.105,3.021,31.105,4.251c0,0.066,29.319-6.533,29.319-7.152c0,7.304,33.134,3.146,33.134,2.716
	c0-0.115,30.771-4.511,30.771-2.091c0-0.579,27.839-4.441,27.839-5.226c0-0.886,32.279-7.062,32.279-2.089
	c0,3.384,30.963-8.967,30.963-6.547c0,1.022,36.43,7.939,36.43,4.326c0-0.896,29.146-4.461,29.146-1.606
	c0,4.866,29.263-5.438,29.263-3.896c0,0.937,29.626,4.967,29.626,3.49c0,3.363,29.875-7.469,29.875-3.335
	c0,0.346,29.513,0.702,29.513,1.395c0,2.381,28.716,1.561,28.716,3.596c0,0.976,29.161-0.59,29.161,1.045
	c0-1.94,30.593-1.725,30.593-2.193c0,3.131,29.377,2.798,29.377,1.037c0-1.97,29.137,4.256,29.137,1.444
	c0,1.833,27.407,3.701,27.407,3.837c0,0.455,28.792,3.532,28.792,1.588c0,3.083,27.471,4.288,27.471,3.85
	c0,0.66,29.937-0.569,29.937,0.968c0-3.483,31.5,2.178,31.5-0.507c0,1.821,26.379,3.113,26.379,4.782
	c0-4.273,34.195-1.274,34.195-3.139c0,0.555,29.602-2.183,29.602,1.419c0-5.409,25.137,3.261,25.137,6.117
	c0,6.027,29.745,0.271,29.745,1.301c0,0.985,32.014-7.247,32.014-1.668c0,1.92,27.225,8.288,27.225,4.294
	c0,0.074,29.425,3.079,29.425,1.5c0-5.746,30.534,3.699,30.534-0.931c0-0.203,27.572,5.178,27.572,7.751
	c0,5.551,31.27-1.741,31.27-5.062c0,1.059,30.368,2.341,30.368,5.249c0-2.034,30.059-1.999,30.059-2.968
	c0-3.376,30.407,1.148,30.407-0.56c0-3.828,29.138-3.808,29.138-4.05c0,2.648,31.258-1.78,31.258-2.998
	c0,0.933,32.061,1.479,32.061,2.974c0,0.274,33.957-0.832,33.957,3.691c0,5.787,33.786,3.366,33.786,2.478
	c0-4.224,22.68,2.507,22.68,3.439c0,3.271,25.781,4.984,25.781,1.565c0-9.428,24.346-3.443,24.346-4.24
	c0-2.585,31.465,3.491,31.465,3.989c0,4.505,27.568-4.003,27.568-7.324c0-1.275,32.012,3.211,32.012,5.58
	c0-4.289,33.088,0.394,28.95-3.312c1.347,1.461,31.975,2.434,30.311,0.271c2.424,0.848,25.083-2.601,29.332-0.446
	c-6.662-6.831,22.968-2.562,30.951,1.109c0.759-1.376,27.386-2.632,29.205-2.574c-5.515-1.262,34.183-2.804,29.084-2.868
	c2.04-0.4,30.129-2.696,29.886-2.458c0.468,3.052,5.765,4.757,11.722,5.518V0H0v41.263C5.031,40.845,15.21,41.43,20.736,44.636z"/>
</svg>
